<svg xmlns="http://www.w3.org/2000/svg" xmlns:xlink="http://www.w3.org/1999/xlink" width="1080" zoomAndPan="magnify" viewBox="0 0 810 809.999993" height="1080" preserveAspectRatio="xMidYMid meet" version="1.2"><g id="2fd290c98c"><path style=" stroke:none;fill-rule:evenodd;fill:#000000;fill-opacity:1;" d="M 427.464844 100.101562 C 413.863281 91.03125 396.136719 91.03125 382.535156 100.101562 L 99.035156 289.101562 C 87.765625 296.613281 81 309.257812 81 322.800781 L 81 684.449219 C 81 706.816406 99.132812 724.949219 121.5 724.949219 L 243 724.949219 L 243 562.949219 C 243 495.84375 297.398438 441.449219 364.5 441.449219 L 445.5 441.449219 C 512.605469 441.449219 567 495.84375 567 562.949219 L 567 724.949219 L 688.5 724.949219 C 710.867188 724.949219 729 706.816406 729 684.449219 L 729 322.800781 C 729 309.257812 722.230469 296.613281 710.964844 289.101562 Z M 337.605469 32.707031 C 378.414062 5.496094 431.585938 5.496094 472.394531 32.707031 L 755.894531 221.707031 C 789.699219 244.238281 810 282.175781 810 322.800781 L 810 684.449219 C 810 751.550781 755.605469 805.949219 688.5 805.949219 L 526.5 805.949219 C 504.132812 805.949219 486 787.816406 486 765.449219 L 486 562.949219 C 486 540.582031 467.867188 522.449219 445.5 522.449219 L 364.5 522.449219 C 342.132812 522.449219 324 540.582031 324 562.949219 L 324 765.449219 C 324 787.816406 305.867188 805.949219 283.5 805.949219 L 121.5 805.949219 C 54.398438 805.949219 0 751.550781 0 684.449219 L 0 322.800781 C 0 282.175781 20.300781 244.238281 54.105469 221.707031 Z M 337.605469 32.707031 "/></g></svg>